<svg version="1.1" xmlns="http://www.w3.org/2000/svg" xmlns:xlink="http://www.w3.org/1999/xlink" width="711" height="392" viewBox="0,0,711,392"><g transform="translate(35.5,16)"><g data-paper-data="{&quot;isPaintingLayer&quot;:true}" fill-rule="nonzero" stroke-linecap="butt" stroke-linejoin="miter" stroke-miterlimit="10" stroke-dasharray="" stroke-dashoffset="0" style="mix-blend-mode: normal"><path d="M-35.5,376v-392h711v392z" fill="#dddddd" stroke="none" stroke-width="0"/><g fill="#eeeeee" stroke="none" stroke-width="1"><path d="M82.20417,27.2426v-24.08292h24.08292v24.08292z"/><path d="M250.7672,3.15972l6.02073,6.02073l-6.02073,6.02073l6.02073,6.02073l-6.02073,6.02073l-6.02073,-6.02073l-6.02073,6.02073l-6.02073,-6.02073l6.02073,-6.02073l-6.02073,-6.02073l6.02073,-6.02073l6.02073,6.02073z"/><path d="M292.90914,27.2426v-24.08292h24.08292v24.08292z"/><path d="M341.07021,33.15972l6.02073,6.02073l-6.02073,6.02073l6.02073,6.02073l-6.02073,6.02073l-6.02073,-6.02073l-6.02073,6.02073l-6.02073,-6.02073l6.02073,-6.02073l-6.02073,-6.02073l6.02073,-6.02073l6.02073,6.02073z"/><path d="M431.37326,33.15972l6.02073,6.02073l-6.02073,6.02073l6.02073,6.02073l-6.02073,6.02073l-6.02073,-6.02073l-6.02073,6.02073l-6.02073,-6.02073l6.02073,-6.02073l-6.02073,-6.02073l6.02073,-6.02073l6.02073,6.02073z"/><path d="M461.47849,3.15972l6.02073,6.02073l-6.02073,6.02073l6.02073,6.02073l-6.02073,6.02073l-6.02073,-6.02073l-6.02073,6.02073l-6.02073,-6.02073l6.02073,-6.02073l-6.02073,-6.02073l6.02073,-6.02073l6.02073,6.02073z"/><path d="M503.61408,27.2426v-24.08292h24.08292v24.08292z"/><path d="M551.78153,3.15972l6.02073,6.02073l-6.02073,6.02073l6.02073,6.02073l-6.02073,6.02073l-6.02073,-6.02073l-6.02073,6.02073l-6.02073,-6.02073l6.02073,-6.02073l-6.02073,-6.02073l6.02073,-6.02073l6.02073,6.02073z"/><path d="M112.30305,57.34772v-24.08292h24.08292v24.08292z"/><path d="M160.46415,33.26495l6.02073,6.02073l-6.02073,6.02073l6.02073,6.02073l-6.02073,6.02073l-6.02073,-6.02073l-6.02073,6.02073l-6.02073,-6.02073l6.02073,-6.02073l-6.02073,-6.02073l6.02073,-6.02073l6.02073,6.02073z"/><path d="M250.7672,33.26495l6.02073,6.02073l-6.02073,6.02073l6.02073,6.02073l-6.02073,6.02073l-6.02073,-6.02073l-6.02073,6.02073l-6.02073,-6.02073l6.02073,-6.02073l-6.02073,-6.02073l6.02073,-6.02073l6.02073,6.02073z"/><path d="M371.17544,33.26495l6.02073,6.02073l-6.02073,6.02073l6.02073,6.02073l-6.02073,6.02073l-6.02073,-6.02073l-6.02073,6.02073l-6.02073,-6.02073l6.02073,-6.02073l-6.02073,-6.02073l6.02073,-6.02073l6.02073,6.02073z"/><path d="M461.47849,33.26495l6.02073,6.02073l-6.02073,6.02073l6.02073,6.02073l-6.02073,6.02073l-6.02073,-6.02073l-6.02073,6.02073l-6.02073,-6.02073l6.02073,-6.02073l-6.02073,-6.02073l6.02073,-6.02073l6.02073,6.02073z"/><path d="M521.67627,33.26495l6.02073,6.02073l-6.02073,6.02073l6.02073,6.02073l-6.02073,6.02073l-6.02073,-6.02073l-6.02073,6.02073l-6.02073,-6.02073l6.02073,-6.02073l-6.02073,-6.02073l6.02073,-6.02073l6.02073,6.02073z"/><path d="M551.78153,33.26495l6.02073,6.02073l-6.02073,6.02073l6.02073,6.02073l-6.02073,6.02073l-6.02073,-6.02073l-6.02073,6.02073l-6.02073,-6.02073l6.02073,-6.02073l-6.02073,-6.02073l6.02073,-6.02073l6.02073,6.02073z"/><path d="M401.37325,3.15972l6.02073,6.02073l-6.02073,6.02073l6.02073,6.02073l-6.02073,6.02073l-6.02073,-6.02073l-6.02073,6.02073l-6.02073,-6.02073l6.02073,-6.02073l-6.02073,-6.02073l6.02073,-6.02073l6.02073,6.02073z"/><path d="M82.20417,267.2426v-24.08292h24.08292v24.08292z"/><path d="M250.7672,243.15972l6.02073,6.02073l-6.02073,6.02073l6.02073,6.02073l-6.02073,6.02073l-6.02073,-6.02073l-6.02073,6.02073l-6.02073,-6.02073l6.02073,-6.02073l-6.02073,-6.02073l6.02073,-6.02073l6.02073,6.02073z"/><path d="M292.90914,267.2426v-24.08292h24.08292v24.08292z"/><path d="M341.07021,243.15972l6.02073,6.02073l-6.02073,6.02073l6.02073,6.02073l-6.02073,6.02073l-6.02073,-6.02073l-6.02073,6.02073l-6.02073,-6.02073l6.02073,-6.02073l-6.02073,-6.02073l6.02073,-6.02073l6.02073,6.02073z"/><path d="M431.37326,243.15972l6.02073,6.02073l-6.02073,6.02073l6.02073,6.02073l-6.02073,6.02073l-6.02073,-6.02073l-6.02073,6.02073l-6.02073,-6.02073l6.02073,-6.02073l-6.02073,-6.02073l6.02073,-6.02073l6.02073,6.02073z"/><path d="M461.47849,243.15972l6.02073,6.02073l-6.02073,6.02073l6.02073,6.02073l-6.02073,6.02073l-6.02073,-6.02073l-6.02073,6.02073l-6.02073,-6.02073l6.02073,-6.02073l-6.02073,-6.02073l6.02073,-6.02073l6.02073,6.02073z"/><path d="M503.61408,267.2426v-24.08292h24.08292v24.08292z"/><path d="M551.78153,243.15972l6.02073,6.02073l-6.02073,6.02073l6.02073,6.02073l-6.02073,6.02073l-6.02073,-6.02073l-6.02073,6.02073l-6.02073,-6.02073l6.02073,-6.02073l-6.02073,-6.02073l6.02073,-6.02073l6.02073,6.02073z"/><path d="M112.30305,297.34772v-24.08292h24.08292v24.08292z"/><path d="M160.46415,273.26495l6.02073,6.02073l-6.02073,6.02073l6.02073,6.02073l-6.02073,6.02073l-6.02073,-6.02073l-6.02073,6.02073l-6.02073,-6.02073l6.02073,-6.02073l-6.02073,-6.02073l6.02073,-6.02073l6.02073,6.02073z"/><path d="M310.97132,273.26495l6.02073,6.02073l-6.02073,6.02073l6.02073,6.02073l-6.02073,6.02073l-6.02073,-6.02073l-6.02073,6.02073l-6.02073,-6.02073l6.02073,-6.02073l-6.02073,-6.02073l6.02073,-6.02073l6.02073,6.02073z"/><path d="M401.27433,273.26495l6.02073,6.02073l-6.02073,6.02073l6.02073,6.02073l-6.02073,6.02073l-6.02073,-6.02073l-6.02073,6.02073l-6.02073,-6.02073l6.02073,-6.02073l-6.02073,-6.02073l6.02073,-6.02073l6.02073,6.02073z"/><path d="M521.67627,273.26495l6.02073,6.02073l-6.02073,6.02073l6.02073,6.02073l-6.02073,6.02073l-6.02073,-6.02073l-6.02073,6.02073l-6.02073,-6.02073l6.02073,-6.02073l-6.02073,-6.02073l6.02073,-6.02073l6.02073,6.02073z"/><path d="M551.78153,273.26495l6.02073,6.02073l-6.02073,6.02073l6.02073,6.02073l-6.02073,6.02073l-6.02073,-6.02073l-6.02073,6.02073l-6.02073,-6.02073l6.02073,-6.02073l-6.02073,-6.02073l6.02073,-6.02073l6.02073,6.02073z"/><path d="M22.20417,267.44673v-24.08292h24.08292v24.08292z"/><path d="M160.46415,303.36368l6.02073,6.02073l-6.02073,6.02073l6.02073,6.02073l-6.02073,6.02073l-6.02073,-6.02073l-6.02073,6.02073l-6.02073,-6.02073l6.02073,-6.02073l-6.02073,-6.02073l6.02073,-6.02073l6.02073,6.02073z"/><path d="M202.60609,327.44673v-24.08292h24.08292v24.08292z"/><path d="M431.37326,303.36368l6.02073,6.02073l-6.02073,6.02073l6.02073,6.02073l-6.02073,6.02073l-6.02073,-6.02073l-6.02073,6.02073l-6.02073,-6.02073l6.02073,-6.02073l-6.02073,-6.02073l6.02073,-6.02073l6.02073,6.02073z"/><path d="M521.67627,303.36368l6.02073,6.02073l-6.02073,6.02073l6.02073,6.02073l-6.02073,6.02073l-6.02073,-6.02073l-6.02073,6.02073l-6.02073,-6.02073l6.02073,-6.02073l-6.02073,-6.02073l6.02073,-6.02073l6.02073,6.02073z"/><path d="M533.71932,327.44673v-24.08292h24.08292v24.08292z"/><path d="M112.20415,357.44674v-24.08292h24.08292v24.08292z"/><path d="M190.46417,273.26495l6.02073,6.02073l-6.02073,6.02073l6.02073,6.02073l-6.02073,6.02073l-6.02073,-6.02073l-6.02073,6.02073l-6.02073,-6.02073l6.02073,-6.02073l-6.02073,-6.02073l6.02073,-6.02073l6.02073,6.02073z"/><path d="M503.61408,357.2426v-24.08292h24.08292v24.08292z"/><path d="M341.37325,333.36368l6.02073,6.02073l-6.02073,6.02073l6.02073,6.02073l-6.02073,6.02073l-6.02073,-6.02073l-6.02073,6.02073l-6.02073,-6.02073l6.02073,-6.02073l-6.02073,-6.02073l6.02073,-6.02073l6.02073,6.02073z"/><path d="M22.20417,357.2426v-24.08292h24.08292v24.08292z"/><path d="M70.46415,303.36368l6.02073,6.02073l-6.02073,6.02073l6.02073,6.02073l-6.02073,6.02073l-6.02073,-6.02073l-6.02073,6.02073l-6.02073,-6.02073l6.02073,-6.02073l-6.02073,-6.02073l6.02073,-6.02073l6.02073,6.02073z"/><path d="M593.61408,357.2426v-24.08292h24.08292v24.08292z"/><path d="M581.78153,273.26495l6.02073,6.02073l-6.02073,6.02073l6.02073,6.02073l-6.02073,6.02073l-6.02073,-6.02073l-6.02073,6.02073l-6.02073,-6.02073l6.02073,-6.02073l-6.02073,-6.02073l6.02073,-6.02073l6.02073,6.02073z"/><path d="M611.78153,273.26495l6.02073,6.02073l-6.02073,6.02073l6.02073,6.02073l-6.02073,6.02073l-6.02073,-6.02073l-6.02073,6.02073l-6.02073,-6.02073l6.02073,-6.02073l-6.02073,-6.02073l6.02073,-6.02073l6.02073,6.02073z"/><path d="M623.61408,357.2426v-24.08292h24.08292v24.08292z"/><path d="M70.46415,33.26495l6.02073,6.02073l-6.02073,6.02073l6.02073,6.02073l-6.02073,6.02073l-6.02073,-6.02073l-6.02073,6.02073l-6.02073,-6.02073l6.02073,-6.02073l-6.02073,-6.02073l6.02073,-6.02073l6.02073,6.02073z"/><path d="M611.47849,3.15972l6.02073,6.02073l-6.02073,6.02073l6.02073,6.02073l-6.02073,6.02073l-6.02073,-6.02073l-6.02073,6.02073l-6.02073,-6.02073l6.02073,-6.02073l-6.02073,-6.02073l6.02073,-6.02073l6.02073,6.02073z"/><path d="M-7.69695,27.34772v-24.08292h24.08292v24.08292z"/><path d="M10.46417,273.26495l6.02073,6.02073l-6.02073,6.02073l6.02073,6.02073l-6.02073,6.02073l-6.02073,-6.02073l-6.02073,6.02073l-6.02073,-6.02073l6.02073,-6.02073l-6.02073,-6.02073l6.02073,-6.02073l6.02073,6.02073z"/><path d="M112.80305,207.34772v-24.08292h24.08292v24.08292z"/><path d="M160.46415,183.26495l6.02073,6.02073l-6.02073,6.02073l6.02073,6.02073l-6.02073,6.02073l-6.02073,-6.02073l-6.02073,6.02073l-6.02073,-6.02073l6.02073,-6.02073l-6.02073,-6.02073l6.02073,-6.02073l6.02073,6.02073z"/><path d="M262.81023,207.34772v-24.08292h24.08292v24.08292z"/><path d="M310.97132,183.26495l6.02073,6.02073l-6.02073,6.02073l6.02073,6.02073l-6.02073,6.02073l-6.02073,-6.02073l-6.02073,6.02073l-6.02073,-6.02073l6.02073,-6.02073l-6.02073,-6.02073l6.02073,-6.02073l6.02073,6.02073z"/><path d="M401.27433,183.26495l6.02073,6.02073l-6.02073,6.02073l6.02073,6.02073l-6.02073,6.02073l-6.02073,-6.02073l-6.02073,6.02073l-6.02073,-6.02073l6.02073,-6.02073l-6.02073,-6.02073l6.02073,-6.02073l6.02073,6.02073z"/><path d="M160.46415,213.36368l6.02073,6.02073l-6.02073,6.02073l6.02073,6.02073l-6.02073,6.02073l-6.02073,-6.02073l-6.02073,6.02073l-6.02073,-6.02073l6.02073,-6.02073l-6.02073,-6.02073l6.02073,-6.02073l6.02073,6.02073z"/><path d="M202.60609,237.44673v-24.08292h24.08292v24.08292z"/><path d="M431.37326,213.36368l6.02073,6.02073l-6.02073,6.02073l6.02073,6.02073l-6.02073,6.02073l-6.02073,-6.02073l-6.02073,6.02073l-6.02073,-6.02073l6.02073,-6.02073l-6.02073,-6.02073l6.02073,-6.02073l6.02073,6.02073z"/><path d="M521.67627,213.36368l6.02073,6.02073l-6.02073,6.02073l6.02073,6.02073l-6.02073,6.02073l-6.02073,-6.02073l-6.02073,6.02073l-6.02073,-6.02073l6.02073,-6.02073l-6.02073,-6.02073l6.02073,-6.02073l6.02073,6.02073z"/><path d="M533.71932,237.44673v-24.08292h24.08292v24.08292z"/><path d="M190.46417,183.26495l6.02073,6.02073l-6.02073,6.02073l6.02073,6.02073l-6.02073,6.02073l-6.02073,-6.02073l-6.02073,6.02073l-6.02073,-6.02073l6.02073,-6.02073l-6.02073,-6.02073l6.02073,-6.02073l6.02073,6.02073z"/><path d="M310.87244,213.36368l6.02073,6.02073l-6.02073,6.02073l6.02073,6.02073l-6.02073,6.02073l-6.02073,-6.02073l-6.02073,6.02073l-6.02073,-6.02073l6.02073,-6.02073l-6.02073,-6.02073l6.02073,-6.02073l6.02073,6.02073z"/><path d="M383.51518,237.44673v-24.08292h24.08292v24.08292z"/><path d="M353.00802,207.44673v-24.08292h24.08292v24.08292z"/><path d="M70.46415,213.36368l6.02073,6.02073l-6.02073,6.02073l6.02073,6.02073l-6.02073,6.02073l-6.02073,-6.02073l-6.02073,6.02073l-6.02073,-6.02073l6.02073,-6.02073l-6.02073,-6.02073l6.02073,-6.02073l6.02073,6.02073z"/><path d="M581.78153,183.26495l6.02073,6.02073l-6.02073,6.02073l6.02073,6.02073l-6.02073,6.02073l-6.02073,-6.02073l-6.02073,6.02073l-6.02073,-6.02073l6.02073,-6.02073l-6.02073,-6.02073l6.02073,-6.02073l6.02073,6.02073z"/><path d="M10.46417,183.26495l6.02073,6.02073l-6.02073,6.02073l6.02073,6.02073l-6.02073,6.02073l-6.02073,-6.02073l-6.02073,6.02073l-6.02073,-6.02073l6.02073,-6.02073l-6.02073,-6.02073l6.02073,-6.02073l6.02073,6.02073z"/><path d="M310.97132,93.26495l6.02073,6.02073l-6.02073,6.02073l6.02073,6.02073l-6.02073,6.02073l-6.02073,-6.02073l-6.02073,6.02073l-6.02073,-6.02073l6.02073,-6.02073l-6.02073,-6.02073l6.02073,-6.02073l6.02073,6.02073z"/><path d="M401.27433,93.26495l6.02073,6.02073l-6.02073,6.02073l6.02073,6.02073l-6.02073,6.02073l-6.02073,-6.02073l-6.02073,6.02073l-6.02073,-6.02073l6.02073,-6.02073l-6.02073,-6.02073l6.02073,-6.02073l6.02073,6.02073z"/><path d="M521.67627,63.26495l6.02073,6.02073l-6.02073,6.02073l6.02073,6.02073l-6.02073,6.02073l-6.02073,-6.02073l-6.02073,6.02073l-6.02073,-6.02073l6.02073,-6.02073l-6.02073,-6.02073l6.02073,-6.02073l6.02073,6.02073z"/><path d="M551.78153,63.26495l6.02073,6.02073l-6.02073,6.02073l6.02073,6.02073l-6.02073,6.02073l-6.02073,-6.02073l-6.02073,6.02073l-6.02073,-6.02073l6.02073,-6.02073l-6.02073,-6.02073l6.02073,-6.02073l6.02073,6.02073z"/><path d="M581.78153,63.26495l6.02073,6.02073l-6.02073,6.02073l6.02073,6.02073l-6.02073,6.02073l-6.02073,-6.02073l-6.02073,6.02073l-6.02073,-6.02073l6.02073,-6.02073l-6.02073,-6.02073l6.02073,-6.02073l6.02073,6.02073z"/><path d="M611.78153,93.26495l6.02073,6.02073l-6.02073,6.02073l6.02073,6.02073l-6.02073,6.02073l-6.02073,-6.02073l-6.02073,6.02073l-6.02073,-6.02073l6.02073,-6.02073l-6.02073,-6.02073l6.02073,-6.02073l6.02073,6.02073z"/><path d="M250.46417,123.26495l6.02073,6.02073l-6.02073,6.02073l6.02073,6.02073l-6.02073,6.02073l-6.02073,-6.02073l-6.02073,6.02073l-6.02073,-6.02073l6.02073,-6.02073l-6.02073,-6.02073l6.02073,-6.02073l6.02073,6.02073z"/><path d="M202.60609,117.44673v-24.08292h24.08292v24.08292z"/><path d="M10.46417,153.26495l6.02073,6.02073l-6.02073,6.02073l6.02073,6.02073l-6.02073,6.02073l-6.02073,-6.02073l-6.02073,6.02073l-6.02073,-6.02073l6.02073,-6.02073l-6.02073,-6.02073l6.02073,-6.02073l6.02073,6.02073z"/><path d="M160.46417,93.26495l6.02073,6.02073l-6.02073,6.02073l6.02073,6.02073l-6.02073,6.02073l-6.02073,-6.02073l-6.02073,6.02073l-6.02073,-6.02073l6.02073,-6.02073l-6.02073,-6.02073l6.02073,-6.02073l6.02073,6.02073z"/><path d="M112.80305,147.34772v-24.08292h24.08292v24.08292z"/><path d="M160.46415,123.26495l6.02073,6.02073l-6.02073,6.02073l6.02073,6.02073l-6.02073,6.02073l-6.02073,-6.02073l-6.02073,6.02073l-6.02073,-6.02073l6.02073,-6.02073l-6.02073,-6.02073l6.02073,-6.02073l6.02073,6.02073z"/><path d="M370.46415,153.36368l6.02073,6.02073l-6.02073,6.02073l6.02073,6.02073l-6.02073,6.02073l-6.02073,-6.02073l-6.02073,6.02073l-6.02073,-6.02073l6.02073,-6.02073l-6.02073,-6.02073l6.02073,-6.02073l6.02073,6.02073z"/><path d="M190.46417,123.26495l6.02073,6.02073l-6.02073,6.02073l6.02073,6.02073l-6.02073,6.02073l-6.02073,-6.02073l-6.02073,6.02073l-6.02073,-6.02073l6.02073,-6.02073l-6.02073,-6.02073l6.02073,-6.02073l6.02073,6.02073z"/><path d="M461.78153,153.26495l6.02073,6.02073l-6.02073,6.02073l6.02073,6.02073l-6.02073,6.02073l-6.02073,-6.02073l-6.02073,6.02073l-6.02073,-6.02073l6.02073,-6.02073l-6.02073,-6.02073l6.02073,-6.02073l6.02073,6.02073z"/><path d="M461.78153,123.26495l6.02073,6.02073l-6.02073,6.02073l6.02073,6.02073l-6.02073,6.02073l-6.02073,-6.02073l-6.02073,6.02073l-6.02073,-6.02073l6.02073,-6.02073l-6.02073,-6.02073l6.02073,-6.02073l6.02073,6.02073z"/><path d="M-7.19695,147.34772v-24.08292h24.08292v24.08292z"/><path d="M10.46415,93.26495l6.02073,6.02073l-6.02073,6.02073l6.02073,6.02073l-6.02073,6.02073l-6.02073,-6.02073l-6.02073,6.02073l-6.02073,-6.02073l6.02073,-6.02073l-6.02073,-6.02073l6.02073,-6.02073l6.02073,6.02073z"/><path d="M92.96417,93.26495l6.02073,6.02073l-6.02073,6.02073l6.02073,6.02073l-6.02073,6.02073l-6.02073,-6.02073l-6.02073,6.02073l-6.02073,-6.02073l6.02073,-6.02073l-6.02073,-6.02073l6.02073,-6.02073l6.02073,6.02073z"/><path d="M-7.19695,87.34772v-24.08292h24.08292v24.08292z"/><path d="M40.46415,63.26495l6.02073,6.02073l-6.02073,6.02073l6.02073,6.02073l-6.02073,6.02073l-6.02073,-6.02073l-6.02073,6.02073l-6.02073,-6.02073l6.02073,-6.02073l-6.02073,-6.02073l6.02073,-6.02073l6.02073,6.02073z"/><path d="M70.46417,63.26495l6.02073,6.02073l-6.02073,6.02073l6.02073,6.02073l-6.02073,6.02073l-6.02073,-6.02073l-6.02073,6.02073l-6.02073,-6.02073l6.02073,-6.02073l-6.02073,-6.02073l6.02073,-6.02073l6.02073,6.02073z"/><path d="M400.97132,63.26495l6.02073,6.02073l-6.02073,6.02073l6.02073,6.02073l-6.02073,6.02073l-6.02073,-6.02073l-6.02073,6.02073l-6.02073,-6.02073l6.02073,-6.02073l-6.02073,-6.02073l6.02073,-6.02073l6.02073,6.02073z"/><path d="M142.60609,87.44673v-24.08292h24.08292v24.08292z"/><path d="M202.30305,177.34772v-24.08292h24.08292v24.08292z"/><path d="M340.46415,123.26495l6.02073,6.02073l-6.02073,6.02073l6.02073,6.02073l-6.02073,6.02073l-6.02073,-6.02073l-6.02073,6.02073l-6.02073,-6.02073l6.02073,-6.02073l-6.02073,-6.02073l6.02073,-6.02073l6.02073,6.02073z"/><path d="M220.46415,63.36368l6.02073,6.02073l-6.02073,6.02073l6.02073,6.02073l-6.02073,6.02073l-6.02073,-6.02073l-6.02073,6.02073l-6.02073,-6.02073l6.02073,-6.02073l-6.02073,-6.02073l6.02073,-6.02073l6.02073,6.02073z"/><path d="M370.46417,123.26495l6.02073,6.02073l-6.02073,6.02073l6.02073,6.02073l-6.02073,6.02073l-6.02073,-6.02073l-6.02073,6.02073l-6.02073,-6.02073l6.02073,-6.02073l-6.02073,-6.02073l6.02073,-6.02073l6.02073,6.02073z"/><path d="M520.7672,153.15972l6.02073,6.02073l-6.02073,6.02073l6.02073,6.02073l-6.02073,6.02073l-6.02073,-6.02073l-6.02073,6.02073l-6.02073,-6.02073l6.02073,-6.02073l-6.02073,-6.02073l6.02073,-6.02073l6.02073,6.02073z"/><path d="M562.90914,177.2426v-24.08292h24.08292v24.08292z"/><path d="M611.07021,153.15972l6.02073,6.02073l-6.02073,6.02073l6.02073,6.02073l-6.02073,6.02073l-6.02073,-6.02073l-6.02073,6.02073l-6.02073,-6.02073l6.02073,-6.02073l-6.02073,-6.02073l6.02073,-6.02073l6.02073,6.02073z"/><path d="M580.97132,93.26495l6.02073,6.02073l-6.02073,6.02073l6.02073,6.02073l-6.02073,6.02073l-6.02073,-6.02073l-6.02073,6.02073l-6.02073,-6.02073l6.02073,-6.02073l-6.02073,-6.02073l6.02073,-6.02073l6.02073,6.02073z"/><path d="M41.27433,123.26495l6.02073,6.02073l-6.02073,6.02073l6.02073,6.02073l-6.02073,6.02073l-6.02073,-6.02073l-6.02073,6.02073l-6.02073,-6.02073l6.02073,-6.02073l-6.02073,-6.02073l6.02073,-6.02073l6.02073,6.02073z"/><path d="M71.37326,153.36368l6.02073,6.02073l-6.02073,6.02073l6.02073,6.02073l-6.02073,6.02073l-6.02073,-6.02073l-6.02073,6.02073l-6.02073,-6.02073l6.02073,-6.02073l-6.02073,-6.02073l6.02073,-6.02073l6.02073,6.02073z"/><path d="M280.97132,63.26495l6.02073,6.02073l-6.02073,6.02073l6.02073,6.02073l-6.02073,6.02073l-6.02073,-6.02073l-6.02073,6.02073l-6.02073,-6.02073l6.02073,-6.02073l-6.02073,-6.02073l6.02073,-6.02073l6.02073,6.02073z"/><path d="M-7.39391,237.44673v-24.08292h24.08292v24.08292z"/><path d="M622.60609,147.44673v-24.08292h24.08292v24.08292z"/></g><g fill="#d2d3db" stroke="none" stroke-width="1"><path d="M100.36524,33.15972l6.02073,6.02073l-6.02073,6.02073l6.02073,6.02073l-6.02073,6.02073l-6.02073,-6.02073l-6.02073,6.02073l-6.02073,-6.02073l6.02073,-6.02073l-6.02073,-6.02073l6.02073,-6.02073l6.02073,6.02073z"/><path d="M280.87244,3.15972l6.02073,6.02073l-6.02073,6.02073l6.02073,6.02073l-6.02073,6.02073l-6.02073,-6.02073l-6.02073,6.02073l-6.02073,-6.02073l6.02073,-6.02073l-6.02073,-6.02073l6.02073,-6.02073l6.02073,6.02073z"/><path d="M220.6683,33.26495l6.02073,6.02073l-6.02073,6.02073l6.02073,6.02073l-6.02073,6.02073l-6.02073,-6.02073l-6.02073,6.02073l-6.02073,-6.02073l6.02073,-6.02073l-6.02073,-6.02073l6.02073,-6.02073l6.02073,6.02073z"/><path d="M262.81023,57.34772v-24.08292h24.08292v24.08292z"/><path d="M142.60609,27.2426v-24.08292h24.08292v24.08292z"/><path d="M353.51518,27.44673v-24.08292h24.08292v24.08292z"/><path d=""/><path d="M130.36526,243.15972l6.02073,6.02073l-6.02073,6.02073l6.02073,6.02073l-6.02073,6.02073l-6.02073,-6.02073l-6.02073,6.02073l-6.02073,-6.02073l6.02073,-6.02073l-6.02073,-6.02073l6.02073,-6.02073l6.02073,6.02073z"/><path d="M202.60609,267.2426v-24.08292h24.08292v24.08292z"/><path d="M280.87244,243.15972l6.02073,6.02073l-6.02073,6.02073l6.02073,6.02073l-6.02073,6.02073l-6.02073,-6.02073l-6.02073,6.02073l-6.02073,-6.02073l6.02073,-6.02073l-6.02073,-6.02073l6.02073,-6.02073l6.02073,6.02073z"/><path d="M262.81023,297.34772v-24.08292h24.08292v24.08292z"/><path d="M250.7672,303.36368l6.02073,6.02073l-6.02073,6.02073l6.02073,6.02073l-6.02073,6.02073l-6.02073,-6.02073l-6.02073,6.02073l-6.02073,-6.02073l6.02073,-6.02073l-6.02073,-6.02073l6.02073,-6.02073l6.02073,6.02073z"/><path d="M323.00802,327.44673v-24.08292h24.08292v24.08292z"/><path d="M473.51519,327.44673v-24.08292h24.08292v24.08292z"/><path d="M100.66829,333.26496l6.02073,6.02073l-6.02073,6.02073l6.02073,6.02073l-6.02073,6.02073l-6.02073,-6.02073l-6.02073,6.02073l-6.02073,-6.02073l6.02073,-6.02073l-6.02073,-6.02073l6.02073,-6.02073l6.02073,6.02073z"/><path d="M142.60609,267.2426v-24.08292h24.08292v24.08292z"/><path d="M310.87244,303.36368l6.02073,6.02073l-6.02073,6.02073l6.02073,6.02073l-6.02073,6.02073l-6.02073,-6.02073l-6.02073,6.02073l-6.02073,-6.02073l6.02073,-6.02073l-6.02073,-6.02073l6.02073,-6.02073l6.02073,6.02073z"/><path d="M383.51518,327.44673v-24.08292h24.08292v24.08292z"/><path d="M190.87243,333.36368l6.02073,6.02073l-6.02073,6.02073l6.02073,6.02073l-6.02073,6.02073l-6.02073,-6.02073l-6.02073,6.02073l-6.02073,-6.02073l6.02073,-6.02073l-6.02073,-6.02073l6.02073,-6.02073l6.02073,6.02073z"/><path d="M233.00802,357.44673v-24.08292h24.08292v24.08292z"/><path d="M293.51518,357.44673v-24.08292h24.08292v24.08292z"/><path d="M353.00802,297.44673v-24.08292h24.08292v24.08292z"/><path d="M443.51519,297.44673v-24.08292h24.08292v24.08292z"/><path d="M40.36526,273.15972l6.02073,6.02073l-6.02073,6.02073l6.02073,6.02073l-6.02073,6.02073l-6.02073,-6.02073l-6.02073,6.02073l-6.02073,-6.02073l6.02073,-6.02073l-6.02073,-6.02073l6.02073,-6.02073l6.02073,6.02073z"/><path d="M52.20417,297.2426v-24.08292h24.08292v24.08292z"/><path d="M22.81023,57.34772v-24.08292h24.08292v24.08292z"/><path d="M581.37326,33.15972l6.02073,6.02073l-6.02073,6.02073l6.02073,6.02073l-6.02073,6.02073l-6.02073,-6.02073l-6.02073,6.02073l-6.02073,-6.02073l6.02073,-6.02073l-6.02073,-6.02073l6.02073,-6.02073l6.02073,6.02073z"/><path d="M611.47849,33.26495l6.02073,6.02073l-6.02073,6.02073l6.02073,6.02073l-6.02073,6.02073l-6.02073,-6.02073l-6.02073,6.02073l-6.02073,-6.02073l6.02073,-6.02073l-6.02073,-6.02073l6.02073,-6.02073l6.02073,6.02073z"/><path d="M623.51519,297.44673v-24.08292h24.08292v24.08292z"/><path d="M563.51519,327.44673v-24.08292h24.08292v24.08292z"/><path d="M623.51518,27.44673v-24.08292h24.08292v24.08292z"/><path d="M521.67627,183.26495l6.02073,6.02073l-6.02073,6.02073l6.02073,6.02073l-6.02073,6.02073l-6.02073,-6.02073l-6.02073,6.02073l-6.02073,-6.02073l6.02073,-6.02073l-6.02073,-6.02073l6.02073,-6.02073l6.02073,6.02073z"/><path d="M551.78153,183.26495l6.02073,6.02073l-6.02073,6.02073l6.02073,6.02073l-6.02073,6.02073l-6.02073,-6.02073l-6.02073,6.02073l-6.02073,-6.02073l6.02073,-6.02073l-6.02073,-6.02073l6.02073,-6.02073l6.02073,6.02073z"/><path d="M250.7672,213.36368l6.02073,6.02073l-6.02073,6.02073l6.02073,6.02073l-6.02073,6.02073l-6.02073,-6.02073l-6.02073,6.02073l-6.02073,-6.02073l6.02073,-6.02073l-6.02073,-6.02073l6.02073,-6.02073l6.02073,6.02073z"/><path d="M323.00802,237.44673v-24.08292h24.08292v24.08292z"/><path d="M473.51519,237.44673v-24.08292h24.08292v24.08292z"/><path d="M443.51519,207.44673v-24.08292h24.08292v24.08292z"/><path d="M40.36526,183.15972l6.02073,6.02073l-6.02073,6.02073l6.02073,6.02073l-6.02073,6.02073l-6.02073,-6.02073l-6.02073,6.02073l-6.02073,-6.02073l6.02073,-6.02073l-6.02073,-6.02073l6.02073,-6.02073l6.02073,6.02073z"/><path d="M52.20417,207.2426v-24.08292h24.08292v24.08292z"/><path d="M611.78153,183.26495l6.02073,6.02073l-6.02073,6.02073l6.02073,6.02073l-6.02073,6.02073l-6.02073,-6.02073l-6.02073,6.02073l-6.02073,-6.02073l6.02073,-6.02073l-6.02073,-6.02073l6.02073,-6.02073l6.02073,6.02073z"/><path d="M623.51519,207.44673v-24.08292h24.08292v24.08292z"/><path d="M563.51519,237.44673v-24.08292h24.08292v24.08292z"/><path d="M262.81023,117.34772v-24.08292h24.08292v24.08292z"/><path d="M353.00802,117.44673v-24.08292h24.08292v24.08292z"/><path d="M443.51519,117.44673v-24.08292h24.08292v24.08292z"/><path d="M491.37326,93.15972l6.02073,6.02073l-6.02073,6.02073l6.02073,6.02073l-6.02073,6.02073l-6.02073,-6.02073l-6.02073,6.02073l-6.02073,-6.02073l6.02073,-6.02073l-6.02073,-6.02073l6.02073,-6.02073l6.02073,6.02073z"/><path d="M250.7672,93.36368l6.02073,6.02073l-6.02073,6.02073l6.02073,6.02073l-6.02073,6.02073l-6.02073,-6.02073l-6.02073,6.02073l-6.02073,-6.02073l6.02073,-6.02073l-6.02073,-6.02073l6.02073,-6.02073l6.02073,6.02073z"/><path d="M401.67627,153.26495l6.02073,6.02073l-6.02073,6.02073l6.02073,6.02073l-6.02073,6.02073l-6.02073,-6.02073l-6.02073,6.02073l-6.02073,-6.02073l6.02073,-6.02073l-6.02073,-6.02073l6.02073,-6.02073l6.02073,6.02073z"/><path d="M491.78153,123.26495l6.02073,6.02073l-6.02073,6.02073l6.02073,6.02073l-6.02073,6.02073l-6.02073,-6.02073l-6.02073,6.02073l-6.02073,-6.02073l6.02073,-6.02073l-6.02073,-6.02073l6.02073,-6.02073l6.02073,6.02073z"/><path d="M413.51519,87.44673v-24.08292h24.08292v24.08292z"/><path d="M352.81023,87.34772v-24.08292h24.08292v24.08292z"/><path d="M280.7672,153.36368l6.02073,6.02073l-6.02073,6.02073l6.02073,6.02073l-6.02073,6.02073l-6.02073,-6.02073l-6.02073,6.02073l-6.02073,-6.02073l6.02073,-6.02073l-6.02073,-6.02073l6.02073,-6.02073l6.02073,6.02073z"/><path d="M550.87244,153.15972l6.02073,6.02073l-6.02073,6.02073l6.02073,6.02073l-6.02073,6.02073l-6.02073,-6.02073l-6.02073,6.02073l-6.02073,-6.02073l6.02073,-6.02073l-6.02073,-6.02073l6.02073,-6.02073l6.02073,6.02073z"/><path d="M532.81023,117.34772v-24.08292h24.08292v24.08292z"/><path d="M520.7672,123.36368l6.02073,6.02073l-6.02073,6.02073l6.02073,6.02073l-6.02073,6.02073l-6.02073,-6.02073l-6.02073,6.02073l-6.02073,-6.02073l6.02073,-6.02073l-6.02073,-6.02073l6.02073,-6.02073l6.02073,6.02073z"/><path d="M623.00802,87.44673v-24.08292h24.08292v24.08292z"/><path d="M580.87244,123.36368l6.02073,6.02073l-6.02073,6.02073l6.02073,6.02073l-6.02073,6.02073l-6.02073,-6.02073l-6.02073,6.02073l-6.02073,-6.02073l6.02073,-6.02073l-6.02073,-6.02073l6.02073,-6.02073l6.02073,6.02073z"/><path d="M113.51519,177.44673v-24.08292h24.08292v24.08292z"/><path d="M23.51518,177.44673v-24.08292h24.08292v24.08292z"/><path d="M83.51519,147.44673v-24.08292h24.08292v24.08292z"/></g><text transform="translate(0,347.45) scale(0.34861,-0.34861)" font-size="40" xml:space="preserve" fill="#cccccc" fill-rule="nonzero" stroke-opacity="0" stroke="#000000" stroke-width="0" stroke-linecap="butt" stroke-linejoin="miter" stroke-miterlimit="10" stroke-dasharray="" stroke-dashoffset="0" font-family="Lexend" font-weight="normal" text-anchor="start" style="mix-blend-mode: normal"><tspan x="0" dy="0">What</tspan></text></g></g></svg>